<svg id="Capa_1" style="enable-background:new 0 0 512 512;" version="1.1" viewBox="0 0 512 512" xml:space="preserve" xmlns="http://www.w3.org/2000/svg" xmlns:xlink="http://www.w3.org/1999/xlink"><g><polygon points="130,235.999 116.207,36.001 63.793,36.001 52.758,195.999 50,235.999  " style="fill:#FFDAAE;"/><polygon points="130,235.999 50,235.999 10,235.999 10,475.999 169.998,475.999 169.998,435.997    169.998,395.999 169.998,356 169.998,316 169.998,276.001 169.998,235.999  " style="fill:#986E62;"/><path d="M169.998,235.999v40.002V316v40v39.999v39.998V476H502V236l-55.336-40l-55.334-40.001V236L336,196   l-55.334-40.001V236l-55.332-40l-55.336-40.001L169.998,235.999L169.998,235.999z M255.998,355.998v-40h40v40H255.998   L255.998,355.998z M375.998,315.998H416v40h-40.002V315.998z" style="fill:#FF9D21;"/><g><rect height="40" style="fill:#96C8EB;" width="40" x="256" y="316"/><rect height="40" style="fill:#96C8EB;" width="40" x="376" y="316"/></g></g><g><path d="M507.857,227.895L397.19,147.894c-3.043-2.201-7.065-2.509-10.41-0.801   c-3.344,1.71-5.449,5.149-5.449,8.905v60.433l-94.807-68.537c-3.043-2.201-7.064-2.509-10.408-0.801   c-3.346,1.71-5.449,5.149-5.449,8.905v60.433l-94.809-68.537c-3.043-2.201-7.064-2.509-10.41-0.801   c-3.344,1.71-5.449,5.149-5.449,8.905v70.001h-20.666L126.184,35.313c-0.363-5.244-4.721-9.313-9.977-9.313H63.793   c-5.256,0-9.613,4.068-9.977,9.313l-13.15,190.686H10c-5.523,0-10,4.477-10,10v240c0,5.522,4.477,10,10,10h492   c5.522,0,10-4.478,10-10V236C512,232.789,510.459,229.775,507.857,227.895z M62.094,205.999h21.34c5.521,0,10-4.478,10-10   c0-5.523-4.479-10-10-10H63.473l9.654-139.998h33.746l12.412,179.998h-58.57L62.094,205.999z M20,245.999h29.963   c0.012,0,0.025,0.002,0.037,0.002h79.998c0.008,0.001,0.016,0.001,0.02,0c0.014,0,0.025-0.002,0.039-0.002h29.941v20.002h-55.689   c-5.521,0-10,4.478-10,10s4.479,10,10,10h55.689V306h-55.689c-5.521,0-10,4.478-10,10c0,5.523,4.479,10,10,10h55.689v20h-26.725   c-5.521,0-10,4.478-10,10c0,5.523,4.479,10,10,10h26.725v19.999h-55.689c-5.521,0-10,4.478-10,10s4.479,10,10,10h55.689v19.998   h-55.689c-5.521,0-10,4.478-10,10c0,5.523,4.479,10,10,10h55.689v20.002H20V245.999z M492,465.999H179.998v-230v-60.433   l94.809,68.537c3.043,2.201,7.064,2.512,10.41,0.8c3.344-1.709,5.449-5.148,5.449-8.904v-60.433l94.807,68.536   c3.043,2.202,7.064,2.51,10.408,0.801c3.346-1.709,5.449-5.148,5.449-8.904v-60.433L492,241.109V465.999z" style="fill:#000001;"/><path d="M104.309,366h0.236c5.523,0,10-4.477,10-10c0-5.522-4.477-10-10-10h-0.236c-5.521,0-10,4.478-10,10   S98.787,366,104.309,366z" style="fill:#000001;"/><path d="M295.998,305.998h-40.002c-5.523,0-10,4.478-10,10v39.998c0,5.522,4.477,10,10,10h40.002   c5.522,0,10-4.478,10-10v-39.998C305.998,310.477,301.52,305.998,295.998,305.998z M285.998,345.996h-20.002v-19.998h20.002   V345.996z" style="fill:#000001;"/><path d="M365.998,315.998v39.998c0,5.522,4.479,10,10,10H416c5.523,0,10-4.478,10-10v-39.998   c0-5.522-4.477-10-10-10h-40.002C370.477,305.998,365.998,310.477,365.998,315.998z M385.998,325.998H406v19.998h-20.002V325.998z" style="fill:#000001;"/><path d="M321.69,425.997h-0.236c-5.521,0-10,4.478-10,10c0,5.523,4.479,10,10,10h0.236   c5.523,0,10-4.477,10-10C331.69,430.475,327.213,425.997,321.69,425.997z" style="fill:#000001;"/><path d="M292.723,425.997h-36.725c-5.523,0-10,4.478-10,10c0,5.523,4.477,10,10,10h36.725   c5.521,0,10-4.477,10-10C302.723,430.475,298.244,425.997,292.723,425.997z" style="fill:#000001;"/></g><g/><g/><g/><g/><g/><g/><g/><g/><g/><g/><g/><g/><g/><g/><g/></svg>